<!-- <svg width="283" height="64" viewBox="0 0 283 64" fill="none" xmlns="http://www.w3.org/2000/svg">
    <path d="M141.04 16c-11.04 0-19 7.2-19 18s8.96 18 20 18c6.67 0 12.55-2.64 16.19-7.09l-7.65-4.42c-2.02 2.21-5.09 3.5-8.54 3.5-4.79 0-8.86-2.5-10.37-6.5h28.02c.22-1.12.35-2.28.35-3.5 0-10.79-7.96-17.99-19-17.99zm-9.46 14.5c1.25-3.99 4.67-6.5 9.45-6.5 4.79 0 8.21 2.51 9.45 6.5h-18.9zM248.72 16c-11.04 0-19 7.2-19 18s8.96 18 20 18c6.67 0 12.55-2.64 16.19-7.09l-7.65-4.42c-2.02 2.21-5.09 3.5-8.54 3.5-4.79 0-8.86-2.5-10.37-6.5h28.02c.22-1.12.35-2.28.35-3.5 0-10.79-7.96-17.99-19-17.99zm-9.45 14.5c1.25-3.99 4.67-6.5 9.45-6.5 4.79 0 8.21 2.51 9.45 6.5h-18.9zM200.24 34c0 6 3.92 10 10 10 4.12 0 7.21-1.87 8.8-4.92l7.68 4.43c-3.18 5.3-9.14 8.49-16.48 8.49-11.05 0-19-7.2-19-18s7.96-18 19-18c7.34 0 13.29 3.19 16.48 8.49l-7.68 4.43c-1.59-3.05-4.68-4.92-8.8-4.92-6.07 0-10 4-10 10zm82.48-29v46h-9V5h9zM36.95 0L73.9 64H0L36.95 0zm92.38 5l-27.71 48L73.91 5H84.3l17.32 30 17.32-30h10.39zm58.91 12v9.69c-1-.29-2.06-.49-3.2-.49-5.81 0-10 4-10 10V51h-9V17h9v9.2c0-5.08 5.91-9.2 13.2-9.2z" fill="#000"/>
</svg> -->

<svg viewBox="0 0 40 40"
    xmlns="http://www.w3.org/2000/svg">
    <defs>
        <linearGradient x1="50%" y1="0%" x2="50%" y2="100%" id="a">
            <stop stop-color="#2397B3" offset="0%"></stop>
            <stop stop-color="#13577E" offset="100%"></stop>
        </linearGradient>
        <linearGradient x1="50%" y1="0%" x2="50%" y2="100%" id="b">
            <stop stop-color="#73DFF2" offset="0%"></stop>
            <stop stop-color="#47B1EB" offset="100%"></stop>
        </linearGradient>
    </defs>
    <path d="M28.872 22.096c.084.622.128 1.258.128 1.904 0 7.732-6.268 14-14 14-2.176 0-4.236-.496-6.073-1.382l-6.022 2.007c-1.564.521-3.051-.966-2.53-2.53l2.007-6.022A13.944 13.944 0 0 1 1 24c0-7.331 5.635-13.346 12.81-13.95A9.967 9.967 0 0 0 13 14c0 5.523 4.477 10 10 10a9.955 9.955 0 0 0 5.872-1.904z" fill="url(#a)" transform="translate(1 1)"></path>
    <path d="M35.618 20.073l2.007 6.022c.521 1.564-.966 3.051-2.53 2.53l-6.022-2.007A13.944 13.944 0 0 1 23 28c-7.732 0-14-6.268-14-14S15.268 0 23 0s14 6.268 14 14c0 2.176-.496 4.236-1.382 6.073z" fill="url(#b)" transform="translate(1 1)"></path>
    <path d="M18 17a2 2 0 1 0 0-4 2 2 0 0 0 0 4zM24 17a2 2 0 1 0 0-4 2 2 0 0 0 0 4zM30 17a2 2 0 1 0 0-4 2 2 0 0 0 0 4z" fill="#FFF"></path>

</svg>